#N canvas 611 73 450 300 10;
#X obj 30 139 comport 9600;
#X msg 30 55 devices;
#X msg 91 55 open 2;
#X text 146 54 2 is my Arduino's port number;
#X obj 91 19 loadbang;
#X floatatom 30 174 5 0 0 0 - - -;
#X msg 90 98 close;
#X connect 0 0 5 0;
#X connect 1 0 0 0;
#X connect 2 0 0 0;
#X connect 4 0 2 0;
#X connect 6 0 0 0;
