#N canvas 64 22 1012 848 10;
#X declare -lib mrpeach;
#X obj 6 -55 cnv 15 800 500 empty empty Multitouch_OSC_from_Android
20 12 0 14 -245732 -66577 0;
#X obj 29 102 unpackOSC;
#X obj 29 338 print;
#X floatatom 41 222 5 0 0 3 x - -;
#X text 29 363 print to console;
#X obj 30 29 import mrpeach;
#X obj 41 189 unpack \$0 \$1 \$2;
#X floatatom 84 222 5 0 0 3 y - -;
#X floatatom 128 222 5 0 0 3 pressure - -;
#X obj 29 75 udpreceive 12000;
#X obj 41 134 routeOSC /mt0 /mt1 /mt2 /mt3 /mt4;
#X text 251 134 multitouch messages;
#X floatatom 189 222 5 0 0 3 x - -;
#X obj 189 189 unpack \$0 \$1 \$2;
#X floatatom 232 222 5 0 0 3 y - -;
#X floatatom 276 222 5 0 0 3 pressure - -;
#X floatatom 338 222 5 0 0 3 x - -;
#X obj 338 189 unpack \$0 \$1 \$2;
#X floatatom 381 222 5 0 0 3 y - -;
#X floatatom 425 222 5 0 0 3 pressure - -;
#X floatatom 488 222 5 0 0 3 x - -;
#X obj 488 189 unpack \$0 \$1 \$2;
#X floatatom 531 222 5 0 0 3 y - -;
#X floatatom 575 222 5 0 0 3 pressure - -;
#X floatatom 634 222 5 0 0 3 x - -;
#X obj 634 189 unpack \$0 \$1 \$2;
#X floatatom 677 222 5 0 0 3 y - -;
#X floatatom 721 222 5 0 0 3 pressure - -;
#X obj 29 308 spigot;
#X obj 62 283 tgl 15 0 empty empty output_on/off 17 7 0 10 -261682
-1 -1 0 1;
#X connect 1 0 10 0;
#X connect 1 0 28 0;
#X connect 6 0 3 0;
#X connect 6 1 7 0;
#X connect 6 2 8 0;
#X connect 9 0 1 0;
#X connect 10 0 6 0;
#X connect 10 1 13 0;
#X connect 10 2 17 0;
#X connect 10 3 21 0;
#X connect 10 4 25 0;
#X connect 13 0 12 0;
#X connect 13 1 14 0;
#X connect 13 2 15 0;
#X connect 17 0 16 0;
#X connect 17 1 18 0;
#X connect 17 2 19 0;
#X connect 21 0 20 0;
#X connect 21 1 22 0;
#X connect 21 2 23 0;
#X connect 25 0 24 0;
#X connect 25 1 26 0;
#X connect 25 2 27 0;
#X connect 28 0 2 0;
#X connect 29 0 28 1;
