#N canvas 0 22 1139 484 10;
#X obj -377 2 cnv 15 1111 300 empty empty SET_UP_ARDUINO_WITH_LOADBANG
20 12 0 14 -261682 -66577 0;
#X msg 26 219 close;
#X obj -6 18 loadbang;
#X msg 23 187 open 5;
#X msg 20 157 devices;
#X obj 18 108 print;
#X msg -195 79 analogIns 0 1 \, analogIns 1 1;
#X obj -147 108 print;
#X msg -6 79 pinMode 10 input \, pinMode 11 pwm \, pinMode 13 output
;
#X text -325 77 Set up analog input;
#X text 80 154 list all connected devices;
#X text 76 186 open specific port;
#X text 73 217 close port;
#X obj -6 263 s \$0-arduino;
#X text 318 81 Set up digital input \, analog output (pwm) \, & digital
output;
#X text 54 17 automatically send connected messages when patch loads
;
#X obj -375 317 cnv 15 300 140 empty empty MAIN_ARDUINO 20 12 0 14
-261234 -66577 0;
#X obj -359 358 r \$0-arduino;
#X obj -359 388 arduino 5;
#X text -292 387 open this port by default;
#X obj -359 417 s \$0-arduino-out;
#X text -275 355 receive and send to arduino;
#X text -250 417 receive input from arduino;
#X connect 1 0 13 0;
#X connect 2 0 8 0;
#X connect 2 0 6 0;
#X connect 3 0 13 0;
#X connect 4 0 13 0;
#X connect 6 0 7 0;
#X connect 6 0 13 0;
#X connect 8 0 5 0;
#X connect 8 0 13 0;
#X connect 17 0 18 0;
#X connect 18 0 20 0;
