#N canvas 271 158 428 539 10;
#X declare -lib mrpeach;
#X obj 14 67 cnv 15 400 450 empty empty RECEIVE_OSC 20 12 0 14 -47266
-262144 0;
#X obj 55 149 unpackOSC;
#X obj 55 305 print;
#X floatatom 67 222 5 0 0 0 - - -;
#X floatatom 134 211 5 0 0 0 - - -;
#X text 119 147 unpack incoming byte array;
#X text 55 330 print to console;
#X obj 15 23 import mrpeach;
#X text 113 16 add mrpeach objects.;
#X text 111 30 ADD TO PATCHES SENDING OR RECEIVING OSC!;
#X text 221 180 route according to OSC name;
#X obj 55 122 udpreceive 5555;
#X obj 67 181 routeOSC /timer /mouseX;
#X obj 137 266 hsl 60 20 0 600 0 0 empty empty empty -2 -8 0 10 -142502
-1 -1 206 1;
#X text 209 266 controlled by P55's mouseX;
#X obj 198 302 cnv 15 200 200 empty empty MAKE_SOME_SOUND 20 12 0 14
-237167 -66577 0;
#X obj 305 422 osc~;
#X obj 220 365 tgl 15 0 empty empty empty 17 7 0 10 -262144 -1 -1 0
1;
#X obj 359 369 tgl 15 0 empty empty empty 17 7 0 10 -262144 -1 -1 0
284.746;
#X obj 305 445 *~ 1;
#X obj 220 440 s b;
#X obj 105 240 r b;
#X text 137 239 force output;
#X obj 134 295 s xVal;
#X obj 305 343 r xVal;
#X obj 220 417 bng 15 250 50 0 empty empty empty 17 7 0 10 -262144
-1 -1;
#X obj 105 268 bng 15 250 50 0 empty empty empty 17 7 0 10 -262144
-1 -1;
#X obj 359 344 r b;
#X obj 220 341 loadbang;
#X floatatom 252 364 5 0 0 0 - - -;
#X obj 220 390 metro 20;
#X obj 305 469 dac~;
#X obj 305 398 *~;
#X connect 1 0 2 0;
#X connect 1 0 12 0;
#X connect 4 0 13 0;
#X connect 11 0 1 0;
#X connect 12 0 3 0;
#X connect 12 1 4 0;
#X connect 13 0 23 0;
#X connect 16 0 19 0;
#X connect 17 0 30 0;
#X connect 18 0 32 1;
#X connect 19 0 31 0;
#X connect 19 0 31 1;
#X connect 21 0 26 0;
#X connect 24 0 32 0;
#X connect 25 0 20 0;
#X connect 26 0 13 0;
#X connect 27 0 18 0;
#X connect 28 0 17 0;
#X connect 29 0 30 1;
#X connect 30 0 25 0;
#X connect 32 0 16 0;
