#N canvas 37 53 908 706 10;
#X declare -lib mrpeach;
#X obj -194 -59 import mrpeach;
#X obj -196 -23 cnv 15 550 300 empty empty SEND_OSC 20 12 0 14 -204786
-66577 0;
#X obj -177 219 udpsend;
#X msg -177 36 connect localhost 6666;
#X msg -165 62 disconnect;
#X obj -124 194 packOSC;
#X text -66 193 pack message as a byte array;
#X text -125 222 send OSC;
#X text 93 141 *;
#X text -37 142 *;
#X text -96 -66 add mrpeach objects.;
#X text -97 -51 ADD TO PATCHES SENDING OR RECEIVING OSC!;
#X text 117 -8 * OSC messages are prefixed with a /;
#X text 117 10 * Message variables are prefixed a $;
#X obj -196 285 cnv 15 400 300 empty empty RECEIVE_OSC 20 12 0 14 -47266
-262144 0;
#X obj -155 367 unpackOSC;
#X obj -155 523 print;
#X text -91 365 unpack incoming byte array;
#X text -158 551 print to console;
#X text 11 398 route according to OSC name;
#X obj -155 340 udpreceive 5555;
#X obj 30 494 hsl 60 20 0 600 0 0 empty empty empty -2 -8 0 10 -142502
-1 -1 0 1;
#X obj 213 286 cnv 15 440 200 empty empty MAKE_SOME_SOUND 20 12 0 14
-108771 -1 0;
#X obj 269 352 tgl 15 0 empty empty empty 17 7 0 10 -262144 -1 -1 1
1;
#X obj 410 353 tgl 15 0 empty empty empty 17 7 0 10 -262144 -1 -1 284.746
284.746;
#X obj 551 355 *~ 1;
#X obj 269 427 s b;
#X obj 27 440 r b;
#X text 60 467 force output;
#X obj 27 523 s xVal;
#X obj 269 404 bng 15 250 50 0 empty empty empty 17 7 0 10 -262144
-1 -1;
#X obj 27 468 bng 15 250 50 0 empty empty empty 17 7 0 10 -262144 -1
-1;
#X obj 410 328 r b;
#X obj 269 328 loadbang;
#X floatatom 301 351 5 0 0 0 - - -;
#X obj 269 377 metro 20;
#X obj 551 386 dac~;
#X obj 356 382 *~;
#X obj -177 7 loadbang;
#X text -120 5 connect when patch starts;
#X msg -124 142 send /rr \$1;
#X obj -121 95 hsl 90 30 0.09 255.01 0 0 empty empty empty -2 -8 0
10 -258113 -1 -1 3300 0;
#X obj 9 95 hsl 90 30 0.09 255.01 0 0 empty empty empty -2 -8 0 10
-4034 -1 -1 1800 0;
#X msg 6 142 send /gg \$1;
#X text 220 170 *;
#X obj 136 95 hsl 90 30 0 255 0 0 empty empty empty -2 -8 0 10 -4160
-1 -1 6200 0;
#X obj -143 399 routeOSC /mouseY /mouseX;
#X obj -103 494 hsl 60 20 0 600 0 0 empty empty empty -2 -8 0 10 -142502
-1 -1 0 1;
#X obj -106 440 r b;
#X text -73 467 force output;
#X obj -106 468 bng 15 250 50 0 empty empty empty 17 7 0 10 -262144
-1 -1;
#X msg 133 171 send /bb \$1;
#X floatatom -4 226 5 0 0 0 - - -;
#X floatatom 133 141 5 0 0 0 - - -;
#X text 172 140 0 & 255 treated like ints;
#X obj -106 523 s yVal;
#X obj 451 406 osc~;
#X obj 505 353 tgl 15 0 empty empty empty 17 7 0 10 -262144 -1 -1 284.746
284.746;
#X obj 451 327 r xVal;
#X obj 505 328 r b;
#X obj 451 382 *~;
#X obj 356 327 r yVal;
#X text 225 354 on/off;
#X obj 551 327 r~ speaker;
#X obj 356 440 s~ speaker;
#X obj 356 406 phasor~;
#X connect 3 0 2 0;
#X connect 4 0 2 0;
#X connect 5 0 2 0;
#X connect 15 0 16 0;
#X connect 15 0 46 0;
#X connect 20 0 15 0;
#X connect 21 0 29 0;
#X connect 23 0 35 0;
#X connect 24 0 37 1;
#X connect 25 0 36 0;
#X connect 27 0 31 0;
#X connect 30 0 26 0;
#X connect 31 0 21 0;
#X connect 32 0 24 0;
#X connect 33 0 23 0;
#X connect 34 0 35 1;
#X connect 35 0 30 0;
#X connect 37 0 65 0;
#X connect 38 0 3 0;
#X connect 40 0 5 0;
#X connect 41 0 40 0;
#X connect 41 0 52 0;
#X connect 42 0 43 0;
#X connect 43 0 5 0;
#X connect 45 0 53 0;
#X connect 46 0 47 0;
#X connect 46 1 21 0;
#X connect 47 0 55 0;
#X connect 48 0 50 0;
#X connect 50 0 47 0;
#X connect 51 0 5 0;
#X connect 53 0 51 0;
#X connect 56 0 64 0;
#X connect 57 0 60 1;
#X connect 58 0 60 0;
#X connect 59 0 57 0;
#X connect 60 0 56 0;
#X connect 61 0 37 0;
#X connect 63 0 25 0;
#X connect 65 0 64 0;
