#N canvas 74 22 1175 613 10;
#X obj 9 -20 cnv 15 570 570 empty empty EXAMPLE_1 20 12 0 14 -233017
-66577 0;
#X obj 167 40 metro 200;
#X floatatom 218 12 5 0 0 0 - - -;
#X obj 167 12 tgl 15 0 empty empty empty 17 7 0 10 -262144 -1 -1 0
1;
#X obj 167 68 cup;
#X floatatom 167 98 5 0 0 0 - - -;
#X msg 124 41 0;
#X obj 167 124 % 8;
#X floatatom 167 152 5 0 0 0 - - -;
#X obj 167 181 hradio 15 1 0 8 empty empty empty 0 -8 0 10 -262144
-1 -1 6;
#X floatatom 167 209 5 0 0 0 - - -;
#X obj 167 235 sel 0 1 2 3 4 5 6 7;
#X obj 154 267 bng 15 250 50 0 empty empty empty 17 7 0 10 -262144
-1 -1;
#X obj 171 267 bng 15 250 50 0 empty empty empty 17 7 0 10 -262144
-1 -1;
#X obj 256 267 bng 15 250 50 0 empty empty empty 17 7 0 10 -262144
-1 -1;
#X obj 188 267 bng 15 250 50 0 empty empty empty 17 7 0 10 -262144
-1 -1;
#X obj 205 267 bng 15 250 50 0 empty empty empty 17 7 0 10 -262144
-1 -1;
#X obj 222 267 bng 15 250 50 0 empty empty empty 17 7 0 10 -262144
-1 -1;
#X obj 239 267 bng 15 250 50 0 empty empty empty 17 7 0 10 -262144
-1 -1;
#X obj 273 267 bng 15 250 50 0 empty empty empty 17 7 0 10 -262144
-1 -1;
#X text 301 235 last one is if input does not match!;
#X obj 222 387 mtof;
#X obj 222 416 sig~;
#X text 262 387 convert midi note to frequency;
#X text 262 414 create audio signal;
#X obj 222 448 osc~;
#X obj 222 479 *~ 1;
#X obj 222 509 dac~;
#X msg 75 342 60;
#X msg 108 342 62;
#X msg 144 342 64;
#X msg 184 342 65;
#X text 78 316 C;
#X text 111 316 D;
#X text 146 316 E;
#X text 186 316 F;
#X msg 222 341 67;
#X msg 263 342 69;
#X msg 306 343 71;
#X text 225 316 G;
#X text 267 317 A;
#X text 308 317 B;
#X text 43 41 reset count;
#X text 198 67 cOUNT up;
#X text 196 122 divide by 8 and output remainder (modulus);
#X msg 347 343 72;
#X text 352 318 C;
#X text 417 344 Use 0 to turn off note;
#X obj 290 267 bng 15 250 50 0 empty empty empty 17 7 0 10 -262144
-1 -1;
#X msg 386 344 0;
#X text 264 12 Set rate;
#X text 116 -43;
#X text 600 -46;
#X obj 594 -19 cnv 15 570 570 empty empty EXAMPLE_2 20 12 0 14 -261234
-66577 0;
#X obj 651 57 metro 200;
#X floatatom 702 28 5 0 0 0 - - -;
#X obj 651 28 tgl 15 0 empty empty empty 17 7 0 10 -262144 -1 -1 0
1;
#X floatatom 651 117 5 0 0 0 - - -;
#X msg 608 61 0;
#X obj 651 147 % 8;
#X obj 651 176 hradio 15 1 0 8 empty empty empty 0 -8 0 10 -262144
-66577 -1 4;
#X obj 651 204 sel 0 1 2 3 4 5 6 7;
#X msg 651 259 60;
#X msg 684 259 62;
#X msg 720 259 64;
#X msg 760 259 65;
#X msg 798 258 67;
#X msg 839 259 69;
#X msg 882 260 71;
#X obj 651 87 float;
#X obj 751 86 + 2;
#X floatatom 766 57 5 0 0 0 - - -;
#X text 780 87 add number to float (determines step size);
#X msg 923 260 72;
#X msg 961 259 0;
#X text 998 260 Use 0 to turn off note;
#X obj 798 350 +;
#X floatatom 864 332 5 0 0 0 - - -;
#X obj 798 384 mtof;
#X obj 798 413 sig~;
#X obj 798 445 osc~;
#X obj 798 476 *~ 1;
#X obj 798 506 dac~;
#X text 828 349 offset notes;
#X text 805 57 change step size;
#X floatatom 836 460 5 0 1 0 - - -;
#X text 875 460 Amplify (set limit to 1 in properties) shift + drag/down
to fine tune;
#X connect 1 0 4 0;
#X connect 2 0 1 1;
#X connect 3 0 1 0;
#X connect 4 0 5 0;
#X connect 5 0 7 0;
#X connect 6 0 4 0;
#X connect 7 0 8 0;
#X connect 8 0 9 0;
#X connect 9 0 10 0;
#X connect 10 0 11 0;
#X connect 11 0 12 0;
#X connect 11 1 13 0;
#X connect 11 2 15 0;
#X connect 11 3 16 0;
#X connect 11 4 17 0;
#X connect 11 5 18 0;
#X connect 11 6 14 0;
#X connect 11 7 19 0;
#X connect 11 8 48 0;
#X connect 12 0 28 0;
#X connect 13 0 29 0;
#X connect 14 0 38 0;
#X connect 15 0 30 0;
#X connect 16 0 31 0;
#X connect 17 0 36 0;
#X connect 18 0 37 0;
#X connect 19 0 45 0;
#X connect 21 0 22 0;
#X connect 22 0 25 0;
#X connect 25 0 26 0;
#X connect 26 0 27 0;
#X connect 26 0 27 1;
#X connect 28 0 21 0;
#X connect 29 0 21 0;
#X connect 30 0 21 0;
#X connect 31 0 21 0;
#X connect 36 0 21 0;
#X connect 37 0 21 0;
#X connect 38 0 21 0;
#X connect 45 0 21 0;
#X connect 48 0 49 0;
#X connect 49 0 21 0;
#X connect 54 0 69 0;
#X connect 55 0 54 1;
#X connect 56 0 54 0;
#X connect 56 0 74 0;
#X connect 57 0 59 0;
#X connect 58 0 69 0;
#X connect 59 0 60 0;
#X connect 60 0 61 0;
#X connect 61 0 62 0;
#X connect 61 1 63 0;
#X connect 61 2 64 0;
#X connect 61 3 65 0;
#X connect 61 4 66 0;
#X connect 61 5 67 0;
#X connect 61 6 68 0;
#X connect 61 7 73 0;
#X connect 61 8 74 0;
#X connect 62 0 76 0;
#X connect 63 0 76 0;
#X connect 64 0 76 0;
#X connect 65 0 76 0;
#X connect 66 0 76 0;
#X connect 67 0 76 0;
#X connect 68 0 76 0;
#X connect 69 0 57 0;
#X connect 69 0 70 0;
#X connect 70 0 69 1;
#X connect 71 0 70 1;
#X connect 73 0 76 0;
#X connect 74 0 76 0;
#X connect 76 0 78 0;
#X connect 77 0 76 1;
#X connect 78 0 79 0;
#X connect 79 0 80 0;
#X connect 80 0 81 0;
#X connect 81 0 82 0;
#X connect 81 0 82 1;
#X connect 85 0 81 1;
